<?xml version="1.0" encoding="utf-8"?>
<svg id="master-artboard" viewBox="0 0 608.7560424804688 153.29563903808594" version="1.1" xmlns="http://www.w3.org/2000/svg" x="0px" y="0px" style="enable-background:new 0 0 1400 980;" width="608.7560424804688px" height="153.29563903808594px"><defs><style id="ee-google-fonts">@import url(https://fonts.googleapis.com/css?family=Reem+Kufi:400);</style></defs><rect id="ee-background" x="0" y="0" width="608.7560424804688" height="153.29563903808594" style="fill: white; fill-opacity: 0; pointer-events: none;"/><path d="M 233.05499267578125 267.79998779296875 L 246.1549835205078 267.79998779296875 C 251.43499755859375 267.79998779296875 255.8983154296875 268.59332275390625 259.54498291015625 270.17999267578125 C 263.1983337402344 271.760009765625 266.16497802734375 273.8333435058594 268.4449768066406 276.3999938964844 C 270.7249755859375 278.97332763671875 272.3783264160156 281.85333251953125 273.4049987792969 285.0400085449219 C 274.4383239746094 288.23333740234375 274.9549865722656 291.413330078125 274.9549865722656 294.5799865722656 C 274.9549865722656 298.47332763671875 274.2583312988281 301.989990234375 272.864990234375 305.1300048828125 C 271.47833251953125 308.27667236328125 269.5849914550781 310.9533386230469 267.18499755859375 313.1600036621094 C 264.78497314453125 315.3666687011719 261.9983215332031 317.05999755859375 258.8249816894531 318.239990234375 C 255.6583251953125 319.413330078125 252.29832458496094 320 248.7449951171875 320 L 233.05499267578125 320 L 233.05499267578125 267.79998779296875 M 247.59498596191406 312.510009765625 C 250.38165283203125 312.510009765625 252.96165466308594 312.10333251953125 255.33499145507812 311.2900085449219 C 257.7149963378906 310.4700012207031 259.7783203125 309.2799987792969 261.5249938964844 307.7200012207031 C 263.2783203125 306.1600036621094 264.6483154296875 304.239990234375 265.6349792480469 301.9599914550781 C 266.614990234375 299.67999267578125 267.10498046875 297.0533447265625 267.10498046875 294.0799865722656 C 267.10498046875 290.913330078125 266.55499267578125 288.1533203125 265.4549865722656 285.79998779296875 C 264.34832763671875 283.4466552734375 262.9083251953125 281.489990234375 261.1349792480469 279.92999267578125 C 259.35498046875 278.3699951171875 257.3516540527344 277.2200012207031 255.12498474121094 276.4800109863281 C 252.89166259765625 275.73333740234375 250.6216583251953 275.3599853515625 248.3149871826172 275.3599853515625 L 240.9049835205078 275.3599853515625 L 240.9049835205078 312.510009765625 L 247.59498596191406 312.510009765625 ZM 280.38214111328125 278.3800048828125 C 280.38214111328125 277.23333740234375 280.8021545410156 276.2733459472656 281.64215087890625 275.5 C 282.4821472167969 274.73333740234375 283.38214111328125 274.3500061035156 284.3421325683594 274.3500061035156 C 285.3021545410156 274.3500061035156 286.1888122558594 274.73333740234375 287.00213623046875 275.5 C 287.8221435546875 276.2733459472656 288.2321472167969 277.23333740234375 288.2321472167969 278.3800048828125 C 288.2321472167969 279.5333251953125 287.8221435546875 280.48333740234375 287.00213623046875 281.2300109863281 C 286.1888122558594 281.9700012207031 285.3021545410156 282.3399963378906 284.3421325683594 282.3399963378906 C 283.38214111328125 282.3399963378906 282.4821472167969 281.9700012207031 281.64215087890625 281.2300109863281 C 280.8021545410156 280.48333740234375 280.38214111328125 279.5333251953125 280.38214111328125 278.3800048828125 M 287.2921447753906 320 L 281.1721496582031 320 L 281.1721496582031 289.8999938964844 L 287.2921447753906 289.8999938964844 L 287.2921447753906 320 ZM 312.7007141113281 292.57000732421875 L 309.460693359375 296.8900146484375 C 309.4073791503906 296.84332275390625 309.23736572265625 296.72332763671875 308.9507141113281 296.5299987792969 C 308.6640319824219 296.336669921875 308.2940368652344 296.1433410644531 307.8406982421875 295.95001220703125 C 307.3807067871094 295.75665283203125 306.8507080078125 295.57666015625 306.2507019042969 295.4100036621094 C 305.65069580078125 295.24334716796875 305.04071044921875 295.1600036621094 304.42071533203125 295.1600036621094 C 303.6007080078125 295.1600036621094 302.7940368652344 295.35333251953125 302.0007019042969 295.739990234375 C 301.21405029296875 296.1199951171875 300.8207092285156 296.8399963378906 300.8207092285156 297.8999938964844 C 300.8207092285156 298.8066711425781 301.14404296875 299.54998779296875 301.79071044921875 300.1300048828125 C 302.4373779296875 300.7033386230469 303.24072265625 301.2200012207031 304.2007141113281 301.67999267578125 C 305.16070556640625 302.1333312988281 306.20404052734375 302.6000061035156 307.3307189941406 303.0799865722656 C 308.4573669433594 303.55999755859375 309.5007019042969 304.14666748046875 310.460693359375 304.8399963378906 C 311.42071533203125 305.5400085449219 312.2273864746094 306.40667724609375 312.8807067871094 307.44000244140625 C 313.5273742675781 308.4666748046875 313.8507080078125 309.7733459472656 313.8507080078125 311.3599853515625 C 313.8507080078125 314.0466613769531 312.9273681640625 316.26666259765625 311.0807189941406 318.0199890136719 C 309.2273864746094 319.7733459472656 306.69403076171875 320.6499938964844 303.480712890625 320.6499938964844 C 301.60736083984375 320.6499938964844 299.7707214355469 320.32666015625 297.970703125 319.67999267578125 C 296.17071533203125 319.02667236328125 294.720703125 318.07666015625 293.6206970214844 316.8299865722656 C 293.95404052734375 316.4966735839844 294.32403564453125 316.0666809082031 294.730712890625 315.5400085449219 C 295.1373596191406 315.00665283203125 295.54736328125 314.5 295.960693359375 314.0199890136719 C 296.36737060546875 313.5400085449219 296.7007141113281 313.14666748046875 296.960693359375 312.8399963378906 C 297.2273864746094 312.52667236328125 297.384033203125 312.3699951171875 297.4306945800781 312.3699951171875 C 297.4306945800781 312.4166564941406 297.6107177734375 312.55999755859375 297.970703125 312.79998779296875 C 298.3307189941406 313.0400085449219 298.80072021484375 313.2933349609375 299.3807067871094 313.55999755859375 C 299.95404052734375 313.82000732421875 300.6007080078125 314.05999755859375 301.3207092285156 314.2799987792969 C 302.04071044921875 314.49334716796875 302.7607116699219 314.6000061035156 303.480712890625 314.6000061035156 C 304.634033203125 314.6000061035156 305.61737060546875 314.3133239746094 306.4306945800781 313.739990234375 C 307.2507019042969 313.1600036621094 307.66070556640625 312.3900146484375 307.66070556640625 311.42999267578125 C 307.66070556640625 310.57000732421875 307.33404541015625 309.88665771484375 306.6806945800781 309.3800048828125 C 306.0340270996094 308.8733215332031 305.230712890625 308.40667724609375 304.2707214355469 307.9800109863281 C 303.3106994628906 307.5466613769531 302.2540283203125 307.1000061035156 301.1007080078125 306.6400146484375 C 299.95404052734375 306.1866760253906 298.90069580078125 305.6000061035156 297.9407043457031 304.8800048828125 C 296.980712890625 304.1600036621094 296.1740417480469 303.260009765625 295.5207214355469 302.17999267578125 C 294.8740539550781 301.1000061035156 294.55072021484375 299.6966552734375 294.55072021484375 297.9700012207031 C 294.55072021484375 296.336669921875 294.8507080078125 294.9666748046875 295.4507141113281 293.8599853515625 C 296.05072021484375 292.760009765625 296.8207092285156 291.8599853515625 297.7607116699219 291.1600036621094 C 298.69403076171875 290.4666748046875 299.73736572265625 289.96331787109375 300.8907165527344 289.6499938964844 C 302.0440368652344 289.336669921875 303.1473693847656 289.17999267578125 304.2007141113281 289.17999267578125 C 305.59405517578125 289.17999267578125 307.0807189941406 289.4700012207031 308.66070556640625 290.04998779296875 C 310.24737548828125 290.6233215332031 311.59405517578125 291.46331787109375 312.7007141113281 292.57000732421875 ZM 345.8423156738281 316.4700012207031 C 344.4023132324219 317.7699890136719 342.64898681640625 318.8033447265625 340.5823059082031 319.57000732421875 C 338.5223083496094 320.336669921875 336.4123229980469 320.7200012207031 334.2523193359375 320.7200012207031 C 332.0389709472656 320.7200012207031 329.9623107910156 320.29998779296875 328.0223083496094 319.4599914550781 C 326.0756530761719 318.6199951171875 324.38232421875 317.49334716796875 322.94232177734375 316.0799865722656 C 321.5023193359375 314.6600036621094 320.3623046875 312.989990234375 319.5223083496094 311.07000732421875 C 318.68231201171875 309.1499938964844 318.2623291015625 307.1099853515625 318.2623291015625 304.95001220703125 C 318.2623291015625 302.7900085449219 318.68231201171875 300.75 319.5223083496094 298.8299865722656 C 320.3623046875 296.9100036621094 321.5023193359375 295.2300109863281 322.94232177734375 293.7900085449219 C 324.38232421875 292.3500061035156 326.05230712890625 291.2099914550781 327.95233154296875 290.3699951171875 C 329.84564208984375 289.5299987792969 331.872314453125 289.1099853515625 334.0323181152344 289.1099853515625 C 337.4389953613281 289.1099853515625 340.4023132324219 290.1300048828125 342.92230224609375 292.1700134277344 C 345.44232177734375 294.2099914550781 347.2556457519531 296.88665771484375 348.3623046875 300.20001220703125 C 346.8756408691406 300.7266540527344 345.17230224609375 301.3733215332031 343.2523193359375 302.1400146484375 C 341.3323059082031 302.913330078125 339.3389892578125 303.7200012207031 337.2723083496094 304.55999755859375 C 335.2056579589844 305.3999938964844 333.142333984375 306.2266540527344 331.0823059082031 307.0400085449219 C 329.0156555175781 307.85333251953125 327.09564208984375 308.5966796875 325.32232666015625 309.2699890136719 C 326.1356506347656 310.9033203125 327.32232666015625 312.21331787109375 328.88232421875 313.20001220703125 C 330.44232177734375 314.17999267578125 332.18231201171875 314.6700134277344 334.1023254394531 314.6700134277344 C 335.4023132324219 314.6700134277344 336.7123107910156 314.42999267578125 338.0323181152344 313.95001220703125 C 339.3523254394531 313.4700012207031 340.4189758300781 312.8233337402344 341.2323303222656 312.010009765625 L 345.8423156738281 316.4700012207031 M 340.6523132324219 298.760009765625 C 340.0789794921875 297.55999755859375 339.1689758300781 296.6600036621094 337.92230224609375 296.05999755859375 C 336.6756591796875 295.4599914550781 335.4023132324219 295.1600036621094 334.1023254394531 295.1600036621094 C 332.708984375 295.1600036621094 331.4256591796875 295.42333984375 330.2523193359375 295.95001220703125 C 329.0789794921875 296.4766540527344 328.0589904785156 297.1866760253906 327.19232177734375 298.0799865722656 C 326.3256530761719 298.9666748046875 325.6423034667969 299.9866638183594 325.1423034667969 301.1400146484375 C 324.6356506347656 302.28668212890625 324.38232421875 303.4599914550781 324.38232421875 304.6600036621094 C 324.38232421875 304.8999938964844 324.3956604003906 305.07000732421875 324.4223327636719 305.1700134277344 C 324.44232177734375 305.2633361816406 324.45233154296875 305.3333435058594 324.45233154296875 305.3800048828125 C 325.7056579589844 304.8999938964844 327.06231689453125 304.3599853515625 328.5223083496094 303.760009765625 C 329.9889831542969 303.1600036621094 331.44232177734375 302.55999755859375 332.88232421875 301.9599914550781 C 334.32232666015625 301.3599853515625 335.7123107910156 300.78668212890625 337.05230712890625 300.239990234375 C 338.39898681640625 299.6866760253906 339.5989990234375 299.1933288574219 340.6523132324219 298.760009765625 ZM 351.5844421386719 305.239990234375 C 351.5844421386719 303.0333251953125 352.0044250488281 300.9566650390625 352.84442138671875 299.010009765625 C 353.6844177246094 297.07000732421875 354.8244323730469 295.3666687011719 356.2644348144531 293.8999938964844 C 357.7044372558594 292.4333190917969 359.3744201660156 291.2699890136719 361.2744445800781 290.4100036621094 C 363.1677551269531 289.5433349609375 365.1944274902344 289.1099853515625 367.35443115234375 289.1099853515625 C 368.79443359375 289.1099853515625 370.11444091796875 289.2900085449219 371.3144226074219 289.6499938964844 C 372.5144348144531 290.010009765625 373.5477600097656 290.4533386230469 374.4144287109375 290.9800109863281 C 375.2744445800781 291.5133361816406 375.9677734375 292.0666809082031 376.49444580078125 292.6400146484375 C 377.02777099609375 293.21331787109375 377.38775634765625 293.7166748046875 377.5744323730469 294.1499938964844 L 377.86444091796875 289.8999938964844 L 383.7744140625 289.8999938964844 L 383.7744140625 320 L 377.5744323730469 320 L 377.5744323730469 316.17999267578125 C 377.3344421386719 316.5666809082031 376.95111083984375 317.0233459472656 376.4244384765625 317.54998779296875 C 375.89776611328125 318.07666015625 375.21441650390625 318.57000732421875 374.3744201660156 319.0299987792969 C 373.534423828125 319.48333740234375 372.5377502441406 319.8800048828125 371.3844299316406 320.2200012207031 C 370.2311096191406 320.5533447265625 368.9111022949219 320.7200012207031 367.4244384765625 320.7200012207031 C 365.1244201660156 320.7200012207031 363.0010986328125 320.29998779296875 361.054443359375 319.4599914550781 C 359.1077575683594 318.6199951171875 357.44110107421875 317.49334716796875 356.054443359375 316.0799865722656 C 354.6611022949219 314.6600036621094 353.5677490234375 313.0133361816406 352.7744445800781 311.1400146484375 C 351.9811096191406 309.2733459472656 351.5844421386719 307.3066711425781 351.5844421386719 305.239990234375 M 357.7744445800781 304.8800048828125 C 357.7744445800781 306.2733459472656 358.02777099609375 307.57000732421875 358.534423828125 308.7699890136719 C 359.0411071777344 309.9700012207031 359.72442626953125 311 360.5844421386719 311.8599853515625 C 361.45111083984375 312.7266540527344 362.48443603515625 313.413330078125 363.6844177246094 313.9200134277344 C 364.8844299316406 314.4200134277344 366.2044372558594 314.6700134277344 367.6444396972656 314.6700134277344 C 369.0844421386719 314.6700134277344 370.4144287109375 314.4200134277344 371.6344299316406 313.9200134277344 C 372.861083984375 313.413330078125 373.9177551269531 312.7166748046875 374.804443359375 311.8299865722656 C 375.69110107421875 310.9433288574219 376.3744201660156 309.9100036621094 376.85443115234375 308.7300109863281 C 377.3344421386719 307.5566711425781 377.5744323730469 306.2733459472656 377.5744323730469 304.8800048828125 C 377.5744323730469 303.4866638183594 377.3344421386719 302.2033386230469 376.85443115234375 301.0299987792969 C 376.3744201660156 299.8500061035156 375.69110107421875 298.8299865722656 374.804443359375 297.9700012207031 C 373.9177551269531 297.10333251953125 372.861083984375 296.4200134277344 371.6344299316406 295.9200134277344 C 370.4144287109375 295.413330078125 369.0844421386719 295.1600036621094 367.6444396972656 295.1600036621094 C 366.2044372558594 295.1600036621094 364.8844299316406 295.413330078125 363.6844177246094 295.9200134277344 C 362.48443603515625 296.4200134277344 361.45111083984375 297.10333251953125 360.5844421386719 297.9700012207031 C 359.72442626953125 298.8299865722656 359.0411071777344 299.8500061035156 358.534423828125 301.0299987792969 C 358.02777099609375 302.2033386230469 357.7744445800781 303.4866638183594 357.7744445800781 304.8800048828125 ZM 409.1522216796875 292.57000732421875 L 405.9122314453125 296.8900146484375 C 405.85888671875 296.84332275390625 405.6888732910156 296.72332763671875 405.4022216796875 296.5299987792969 C 405.11553955078125 296.336669921875 404.74554443359375 296.1433410644531 404.2922058105469 295.95001220703125 C 403.83221435546875 295.75665283203125 403.3022155761719 295.57666015625 402.70220947265625 295.4100036621094 C 402.1022033691406 295.24334716796875 401.4922180175781 295.1600036621094 400.8722229003906 295.1600036621094 C 400.0522155761719 295.1600036621094 399.24554443359375 295.35333251953125 398.45220947265625 295.739990234375 C 397.6655578613281 296.1199951171875 397.272216796875 296.8399963378906 397.272216796875 297.8999938964844 C 397.272216796875 298.8066711425781 397.5955505371094 299.54998779296875 398.2422180175781 300.1300048828125 C 398.8888854980469 300.7033386230469 399.6922302246094 301.2200012207031 400.6522216796875 301.67999267578125 C 401.6122131347656 302.1333312988281 402.6555480957031 302.6000061035156 403.7822265625 303.0799865722656 C 404.90887451171875 303.55999755859375 405.95220947265625 304.14666748046875 406.9122314453125 304.8399963378906 C 407.8722229003906 305.5400085449219 408.67889404296875 306.40667724609375 409.33221435546875 307.44000244140625 C 409.9788818359375 308.4666748046875 410.3022155761719 309.7733459472656 410.3022155761719 311.3599853515625 C 410.3022155761719 314.0466613769531 409.3788757324219 316.26666259765625 407.5322265625 318.0199890136719 C 405.67889404296875 319.7733459472656 403.1455383300781 320.6499938964844 399.9322204589844 320.6499938964844 C 398.0588684082031 320.6499938964844 396.22222900390625 320.32666015625 394.4222106933594 319.67999267578125 C 392.6222229003906 319.02667236328125 391.1722106933594 318.07666015625 390.07220458984375 316.8299865722656 C 390.4055480957031 316.4966735839844 390.7755432128906 316.0666809082031 391.1822204589844 315.5400085449219 C 391.5888671875 315.00665283203125 391.9988708496094 314.5 392.4122009277344 314.0199890136719 C 392.8188781738281 313.5400085449219 393.1522216796875 313.14666748046875 393.4122009277344 312.8399963378906 C 393.67889404296875 312.52667236328125 393.8355407714844 312.3699951171875 393.8822021484375 312.3699951171875 C 393.8822021484375 312.4166564941406 394.0622253417969 312.55999755859375 394.4222106933594 312.79998779296875 C 394.7822265625 313.0400085449219 395.2522277832031 313.2933349609375 395.83221435546875 313.55999755859375 C 396.4055480957031 313.82000732421875 397.0522155761719 314.05999755859375 397.772216796875 314.2799987792969 C 398.4922180175781 314.49334716796875 399.21221923828125 314.6000061035156 399.9322204589844 314.6000061035156 C 401.0855407714844 314.6000061035156 402.0688781738281 314.3133239746094 402.8822021484375 313.739990234375 C 403.70220947265625 313.1600036621094 404.1122131347656 312.3900146484375 404.1122131347656 311.42999267578125 C 404.1122131347656 310.57000732421875 403.7855529785156 309.88665771484375 403.1322021484375 309.3800048828125 C 402.48553466796875 308.8733215332031 401.6822204589844 308.40667724609375 400.72222900390625 307.9800109863281 C 399.76220703125 307.5466613769531 398.7055358886719 307.1000061035156 397.5522155761719 306.6400146484375 C 396.4055480957031 306.1866760253906 395.3522033691406 305.6000061035156 394.3922119140625 304.8800048828125 C 393.4322204589844 304.1600036621094 392.62554931640625 303.260009765625 391.97222900390625 302.17999267578125 C 391.3255615234375 301.1000061035156 391.0022277832031 299.6966552734375 391.0022277832031 297.9700012207031 C 391.0022277832031 296.336669921875 391.3022155761719 294.9666748046875 391.9022216796875 293.8599853515625 C 392.5022277832031 292.760009765625 393.272216796875 291.8599853515625 394.21221923828125 291.1600036621094 C 395.1455383300781 290.4666748046875 396.1888732910156 289.96331787109375 397.34222412109375 289.6499938964844 C 398.49554443359375 289.336669921875 399.598876953125 289.17999267578125 400.6522216796875 289.17999267578125 C 402.0455627441406 289.17999267578125 403.5322265625 289.4700012207031 405.1122131347656 290.04998779296875 C 406.6988830566406 290.6233215332031 408.0455627441406 291.46331787109375 409.1522216796875 292.57000732421875 ZM 442.3282775878906 316.4700012207031 C 440.8882751464844 317.7699890136719 439.13494873046875 318.8033447265625 437.0682678222656 319.57000732421875 C 435.0082702636719 320.336669921875 432.8982849121094 320.7200012207031 430.73828125 320.7200012207031 C 428.5249328613281 320.7200012207031 426.4482727050781 320.29998779296875 424.5082702636719 319.4599914550781 C 422.5616149902344 318.6199951171875 420.8682861328125 317.49334716796875 419.42828369140625 316.0799865722656 C 417.98828125 314.6600036621094 416.8482666015625 312.989990234375 416.0082702636719 311.07000732421875 C 415.16827392578125 309.1499938964844 414.748291015625 307.1099853515625 414.748291015625 304.95001220703125 C 414.748291015625 302.7900085449219 415.16827392578125 300.75 416.0082702636719 298.8299865722656 C 416.8482666015625 296.9100036621094 417.98828125 295.2300109863281 419.42828369140625 293.7900085449219 C 420.8682861328125 292.3500061035156 422.53826904296875 291.2099914550781 424.43829345703125 290.3699951171875 C 426.33160400390625 289.5299987792969 428.3582763671875 289.1099853515625 430.5182800292969 289.1099853515625 C 433.9249572753906 289.1099853515625 436.8882751464844 290.1300048828125 439.40826416015625 292.1700134277344 C 441.92828369140625 294.2099914550781 443.7416076660156 296.88665771484375 444.8482666015625 300.20001220703125 C 443.3616027832031 300.7266540527344 441.65826416015625 301.3733215332031 439.73828125 302.1400146484375 C 437.8182678222656 302.913330078125 435.824951171875 303.7200012207031 433.7582702636719 304.55999755859375 C 431.6916198730469 305.3999938964844 429.6282958984375 306.2266540527344 427.5682678222656 307.0400085449219 C 425.5016174316406 307.85333251953125 423.58160400390625 308.5966796875 421.80828857421875 309.2699890136719 C 422.6216125488281 310.9033203125 423.80828857421875 312.21331787109375 425.3682861328125 313.20001220703125 C 426.92828369140625 314.17999267578125 428.66827392578125 314.6700134277344 430.5882873535156 314.6700134277344 C 431.8882751464844 314.6700134277344 433.1982727050781 314.42999267578125 434.5182800292969 313.95001220703125 C 435.8382873535156 313.4700012207031 436.9049377441406 312.8233337402344 437.7182922363281 312.010009765625 L 442.3282775878906 316.4700012207031 M 437.1382751464844 298.760009765625 C 436.56494140625 297.55999755859375 435.6549377441406 296.6600036621094 434.40826416015625 296.05999755859375 C 433.16162109375 295.4599914550781 431.8882751464844 295.1600036621094 430.5882873535156 295.1600036621094 C 429.1949462890625 295.1600036621094 427.91162109375 295.42333984375 426.73828125 295.95001220703125 C 425.56494140625 296.4766540527344 424.5449523925781 297.1866760253906 423.67828369140625 298.0799865722656 C 422.8116149902344 298.9666748046875 422.1282653808594 299.9866638183594 421.6282653808594 301.1400146484375 C 421.1216125488281 302.28668212890625 420.8682861328125 303.4599914550781 420.8682861328125 304.6600036621094 C 420.8682861328125 304.8999938964844 420.8816223144531 305.07000732421875 420.9082946777344 305.1700134277344 C 420.92828369140625 305.2633361816406 420.93829345703125 305.3333435058594 420.93829345703125 305.3800048828125 C 422.1916198730469 304.8999938964844 423.54827880859375 304.3599853515625 425.0082702636719 303.760009765625 C 426.4749450683594 303.1600036621094 427.92828369140625 302.55999755859375 429.3682861328125 301.9599914550781 C 430.80828857421875 301.3599853515625 432.1982727050781 300.78668212890625 433.53826904296875 300.239990234375 C 434.88494873046875 299.6866760253906 436.0849609375 299.1933288574219 437.1382751464844 298.760009765625 ZM 476.7108459472656 293.94000244140625 L 483.8408508300781 293.94000244140625 C 485.7608642578125 293.94000244140625 487.3675231933594 293.60333251953125 488.6608581542969 292.92999267578125 C 489.9541931152344 292.25665283203125 490.97418212890625 291.44000244140625 491.7208557128906 290.4800109863281 C 492.467529296875 289.5199890136719 492.99420166015625 288.4866638183594 493.3008728027344 287.3800048828125 C 493.61419677734375 286.2799987792969 493.7708740234375 285.2966613769531 493.7708740234375 284.42999267578125 C 493.7708740234375 283.51666259765625 493.61419677734375 282.5199890136719 493.3008728027344 281.44000244140625 C 492.99420166015625 280.3599853515625 492.4541931152344 279.35333251953125 491.68084716796875 278.41998291015625 C 490.9141845703125 277.4866638183594 489.8941955566406 276.7066650390625 488.620849609375 276.08001708984375 C 487.35418701171875 275.4533386230469 485.7841796875 275.1400146484375 483.9108581542969 275.1400146484375 L 476.7108459472656 275.1400146484375 L 476.7108459472656 293.94000244140625 M 468.7908630371094 320 L 468.7908630371094 267.79998779296875 L 483.0408630371094 267.79998779296875 C 485.7808532714844 267.79998779296875 488.2908630371094 268.1600036621094 490.57086181640625 268.8800048828125 C 492.8508605957031 269.6000061035156 494.8175354003906 270.6666564941406 496.4708557128906 272.08001708984375 C 498.130859375 273.5 499.4141845703125 275.2300109863281 500.32086181640625 277.2699890136719 C 501.23419189453125 279.30999755859375 501.69085693359375 281.6499938964844 501.69085693359375 284.2900085449219 C 501.69085693359375 286.3500061035156 501.380859375 288.3999938964844 500.7608642578125 290.44000244140625 C 500.1341857910156 292.4800109863281 499.12420654296875 294.3066711425781 497.7308654785156 295.9200134277344 C 496.3375244140625 297.52667236328125 494.5141906738281 298.8333435058594 492.2608642578125 299.8399963378906 C 490.0075378417969 300.8466796875 487.2708740234375 301.3500061035156 484.0508728027344 301.3500061035156 L 476.7108459472656 301.3500061035156 L 476.7108459472656 320 L 468.7908630371094 320 ZM 522.8889770507812 297.0299987792969 C 521.5423583984375 297.0299987792969 520.2456665039062 297.2099914550781 518.9990234375 297.57000732421875 C 517.7523193359375 297.92999267578125 516.6356811523438 298.4700012207031 515.6489868164062 299.19000244140625 C 514.6690063476562 299.9100036621094 513.8889770507812 300.80999755859375 513.3090209960938 301.8900146484375 C 512.7356567382812 302.9700012207031 512.448974609375 304.2066650390625 512.448974609375 305.6000061035156 L 512.448974609375 320 L 506.3290100097656 320 L 506.3290100097656 289.8999938964844 L 511.72900390625 289.8999938964844 C 511.82232666015625 291.3933410644531 511.9056701660156 292.75 511.97900390625 293.9700012207031 C 512.0523071289062 295.1966552734375 512.1356811523438 296.4100036621094 512.22900390625 297.6099853515625 C 512.8556518554688 296.30999755859375 513.67236328125 295.1333312988281 514.6790161132812 294.0799865722656 C 515.6856689453125 293.02667236328125 516.7656860351562 292.1400146484375 517.9190063476562 291.4200134277344 C 519.0723266601562 290.70001220703125 520.2023315429688 290.1333312988281 521.3090209960938 289.7200012207031 C 522.4089965820312 289.3133239746094 523.392333984375 289.1099853515625 524.259033203125 289.1099853515625 L 522.8889770507812 297.0299987792969 ZM 553.6317138671875 316.4700012207031 C 552.1917114257812 317.7699890136719 550.4383544921875 318.8033447265625 548.3717041015625 319.57000732421875 C 546.3117065429688 320.336669921875 544.2017211914062 320.7200012207031 542.0416870117188 320.7200012207031 C 539.828369140625 320.7200012207031 537.751708984375 320.29998779296875 535.8117065429688 319.4599914550781 C 533.8650512695312 318.6199951171875 532.1716918945312 317.49334716796875 530.731689453125 316.0799865722656 C 529.2916870117188 314.6600036621094 528.1517333984375 312.989990234375 527.3117065429688 311.07000732421875 C 526.4717407226562 309.1499938964844 526.0516967773438 307.1099853515625 526.0516967773438 304.95001220703125 C 526.0516967773438 302.7900085449219 526.4717407226562 300.75 527.3117065429688 298.8299865722656 C 528.1517333984375 296.9100036621094 529.2916870117188 295.2300109863281 530.731689453125 293.7900085449219 C 532.1716918945312 292.3500061035156 533.8417358398438 291.2099914550781 535.74169921875 290.3699951171875 C 537.6350708007812 289.5299987792969 539.6617431640625 289.1099853515625 541.8217163085938 289.1099853515625 C 545.2283935546875 289.1099853515625 548.1917114257812 290.1300048828125 550.7117309570312 292.1700134277344 C 553.231689453125 294.2099914550781 555.0450439453125 296.88665771484375 556.1517333984375 300.20001220703125 C 554.6650390625 300.7266540527344 552.9617309570312 301.3733215332031 551.0416870117188 302.1400146484375 C 549.1217041015625 302.913330078125 547.1283569335938 303.7200012207031 545.0617065429688 304.55999755859375 C 542.9950561523438 305.3999938964844 540.9317016601562 306.2266540527344 538.8717041015625 307.0400085449219 C 536.8050537109375 307.85333251953125 534.8850708007812 308.5966796875 533.1116943359375 309.2699890136719 C 533.925048828125 310.9033203125 535.1116943359375 312.21331787109375 536.6716918945312 313.20001220703125 C 538.231689453125 314.17999267578125 539.9717407226562 314.6700134277344 541.8917236328125 314.6700134277344 C 543.1917114257812 314.6700134277344 544.501708984375 314.42999267578125 545.8217163085938 313.95001220703125 C 547.1417236328125 313.4700012207031 548.2083740234375 312.8233337402344 549.021728515625 312.010009765625 L 553.6317138671875 316.4700012207031 M 548.4417114257812 298.760009765625 C 547.868408203125 297.55999755859375 546.9583740234375 296.6600036621094 545.7117309570312 296.05999755859375 C 544.4650268554688 295.4599914550781 543.1917114257812 295.1600036621094 541.8917236328125 295.1600036621094 C 540.4984130859375 295.1600036621094 539.2150268554688 295.42333984375 538.0416870117188 295.95001220703125 C 536.868408203125 296.4766540527344 535.848388671875 297.1866760253906 534.981689453125 298.0799865722656 C 534.1150512695312 298.9666748046875 533.4317016601562 299.9866638183594 532.9317016601562 301.1400146484375 C 532.425048828125 302.28668212890625 532.1716918945312 303.4599914550781 532.1716918945312 304.6600036621094 C 532.1716918945312 304.8999938964844 532.18505859375 305.07000732421875 532.2117309570312 305.1700134277344 C 532.231689453125 305.2633361816406 532.24169921875 305.3333435058594 532.24169921875 305.3800048828125 C 533.4950561523438 304.8999938964844 534.8517456054688 304.3599853515625 536.3117065429688 303.760009765625 C 537.7783813476562 303.1600036621094 539.231689453125 302.55999755859375 540.6716918945312 301.9599914550781 C 542.1116943359375 301.3599853515625 543.501708984375 300.78668212890625 544.8417358398438 300.239990234375 C 546.1883544921875 299.6866760253906 547.3883666992188 299.1933288574219 548.4417114257812 298.760009765625 ZM 559.4093627929688 304.95001220703125 C 559.4093627929688 302.5966796875 559.8060302734375 300.45001220703125 560.599365234375 298.510009765625 C 561.3927001953125 296.5633239746094 562.4860229492188 294.8933410644531 563.87939453125 293.5 C 565.272705078125 292.11334228515625 566.916015625 291.0333251953125 568.8093872070312 290.260009765625 C 570.7026977539062 289.49334716796875 572.7560424804688 289.1099853515625 574.9693603515625 289.1099853515625 C 576.4560546875 289.1099853515625 577.7860107421875 289.2900085449219 578.9593505859375 289.6499938964844 C 580.139404296875 290.010009765625 581.1493530273438 290.4433288574219 581.9893798828125 290.95001220703125 C 582.829345703125 291.45001220703125 583.5360107421875 292.0133361816406 584.109375 292.6400146484375 C 584.6827392578125 293.26666259765625 585.1160278320312 293.82000732421875 585.4093627929688 294.29998779296875 L 585.4093627929688 264.05999755859375 L 591.599365234375 264.05999755859375 L 591.599365234375 320 L 585.4093627929688 320 L 585.4093627929688 317.7699890136719 C 585.4093627929688 317.48333740234375 585.4327392578125 317.1600036621094 585.4793701171875 316.79998779296875 C 585.5260620117188 316.44000244140625 585.5493774414062 316.1400146484375 585.5493774414062 315.8999938964844 C 585.0693969726562 316.47332763671875 584.5060424804688 317.0366516113281 583.859375 317.5899963378906 C 583.2127075195312 318.1433410644531 582.4560546875 318.6600036621094 581.58935546875 319.1400146484375 C 580.7227172851562 319.6199951171875 579.7260131835938 320.0033264160156 578.599365234375 320.2900085449219 C 577.4727172851562 320.57666015625 576.1893920898438 320.7200012207031 574.7493896484375 320.7200012207031 C 572.349365234375 320.7200012207031 570.2026977539062 320.29998779296875 568.3093872070312 319.4599914550781 C 566.4093627929688 318.6199951171875 564.7993774414062 317.49334716796875 563.4793701171875 316.0799865722656 C 562.1593627929688 314.6600036621094 561.1527099609375 312.989990234375 560.4593505859375 311.07000732421875 C 559.7593994140625 309.1499938964844 559.4093627929688 307.1099853515625 559.4093627929688 304.95001220703125 M 565.609375 304.8800048828125 C 565.609375 306.2733459472656 565.859375 307.57000732421875 566.359375 308.7699890136719 C 566.8660278320312 309.9700012207031 567.5493774414062 311 568.4093627929688 311.8599853515625 C 569.2760620117188 312.7266540527344 570.3093872070312 313.413330078125 571.5093994140625 313.9200134277344 C 572.7093505859375 314.4200134277344 574.0293579101562 314.6700134277344 575.4693603515625 314.6700134277344 C 576.9093627929688 314.6700134277344 578.2427368164062 314.4200134277344 579.4693603515625 313.9200134277344 C 580.6893920898438 313.413330078125 581.7427368164062 312.7166748046875 582.62939453125 311.8299865722656 C 583.522705078125 310.9433288574219 584.2093505859375 309.9100036621094 584.6893920898438 308.7300109863281 C 585.1693725585938 307.5566711425781 585.4093627929688 306.2733459472656 585.4093627929688 304.8800048828125 C 585.4093627929688 303.4866638183594 585.1693725585938 302.2033386230469 584.6893920898438 301.0299987792969 C 584.2093505859375 299.8500061035156 583.522705078125 298.8299865722656 582.62939453125 297.9700012207031 C 581.7427368164062 297.10333251953125 580.6893920898438 296.4200134277344 579.4693603515625 295.9200134277344 C 578.2427368164062 295.413330078125 576.9093627929688 295.1600036621094 575.4693603515625 295.1600036621094 C 574.0293579101562 295.1600036621094 572.7093505859375 295.413330078125 571.5093994140625 295.9200134277344 C 570.3093872070312 296.4200134277344 569.2760620117188 297.10333251953125 568.4093627929688 297.9700012207031 C 567.5493774414062 298.8299865722656 566.8660278320312 299.8500061035156 566.359375 301.0299987792969 C 565.859375 302.2033386230469 565.609375 303.4866638183594 565.609375 304.8800048828125 ZM 599.4404907226562 278.3800048828125 C 599.4404907226562 277.23333740234375 599.8604736328125 276.2733459472656 600.700439453125 275.5 C 601.5404663085938 274.73333740234375 602.4404907226562 274.3500061035156 603.4004516601562 274.3500061035156 C 604.3604736328125 274.3500061035156 605.2471313476562 274.73333740234375 606.0604858398438 275.5 C 606.8804321289062 276.2733459472656 607.2904663085938 277.23333740234375 607.2904663085938 278.3800048828125 C 607.2904663085938 279.5333251953125 606.8804321289062 280.48333740234375 606.0604858398438 281.2300109863281 C 605.2471313476562 281.9700012207031 604.3604736328125 282.3399963378906 603.4004516601562 282.3399963378906 C 602.4404907226562 282.3399963378906 601.5404663085938 281.9700012207031 600.700439453125 281.2300109863281 C 599.8604736328125 280.48333740234375 599.4404907226562 279.5333251953125 599.4404907226562 278.3800048828125 M 606.3504638671875 320 L 600.23046875 320 L 600.23046875 289.8999938964844 L 606.3504638671875 289.8999938964844 L 606.3504638671875 320 ZM 635.1045532226562 312.5799865722656 C 635.7778930664062 313.3999938964844 636.41455078125 314.17999267578125 637.0145874023438 314.9200134277344 C 637.6145629882812 315.6666564941406 638.2245483398438 316.4466552734375 638.8445434570312 317.260009765625 C 637.5045776367188 318.32000732421875 635.9945678710938 319.1600036621094 634.3145751953125 319.7799987792969 C 632.6345825195312 320.40667724609375 630.8112182617188 320.7200012207031 628.8445434570312 320.7200012207031 C 626.6312255859375 320.7200012207031 624.5545654296875 320.29998779296875 622.6145629882812 319.4599914550781 C 620.6679077148438 318.6199951171875 618.9745483398438 317.4800109863281 617.5345458984375 316.0400085449219 C 616.0945434570312 314.6000061035156 614.95458984375 312.9200134277344 614.1145629882812 311 C 613.2745971679688 309.0799865722656 612.8545532226562 307.0400085449219 612.8545532226562 304.8800048828125 C 612.8545532226562 302.7200012207031 613.2745971679688 300.67999267578125 614.1145629882812 298.760009765625 C 614.95458984375 296.8399963378906 616.0945434570312 295.17333984375 617.5345458984375 293.760009765625 C 618.9745483398438 292.3399963378906 620.6679077148438 291.2099914550781 622.6145629882812 290.3699951171875 C 624.5545654296875 289.5299987792969 626.6312255859375 289.1099853515625 628.8445434570312 289.1099853515625 C 630.85791015625 289.1099853515625 632.7178955078125 289.42333984375 634.424560546875 290.04998779296875 C 636.1245727539062 290.6700134277344 637.6712646484375 291.510009765625 639.0645751953125 292.57000732421875 L 635.1045532226562 297.25 C 634.291259765625 296.57666015625 633.3545532226562 296.05999755859375 632.2945556640625 295.70001220703125 C 631.2412109375 295.3399963378906 630.0912475585938 295.1600036621094 628.8445434570312 295.1600036621094 C 627.4046020507812 295.1600036621094 626.0845947265625 295.413330078125 624.8845825195312 295.9200134277344 C 623.6845703125 296.4200134277344 622.6378784179688 297.10333251953125 621.7445678710938 297.9700012207031 C 620.85791015625 298.8299865722656 620.174560546875 299.8500061035156 619.694580078125 301.0299987792969 C 619.214599609375 302.2033386230469 618.9745483398438 303.4866638183594 618.9745483398438 304.8800048828125 C 618.9745483398438 306.2733459472656 619.214599609375 307.5566711425781 619.694580078125 308.7300109863281 C 620.174560546875 309.9100036621094 620.85791015625 310.9433288574219 621.7445678710938 311.8299865722656 C 622.6378784179688 312.7166748046875 623.6845703125 313.413330078125 624.8845825195312 313.9200134277344 C 626.0845947265625 314.4200134277344 627.4046020507812 314.6700134277344 628.8445434570312 314.6700134277344 C 630.0912475585938 314.6700134277344 631.2412109375 314.489990234375 632.2945556640625 314.1300048828125 C 633.3545532226562 313.7699890136719 634.291259765625 313.2533264160156 635.1045532226562 312.5799865722656 ZM 647.4796752929688 276.6600036621094 L 653.5997314453125 276.6600036621094 L 653.5997314453125 289.9800109863281 L 661.669677734375 289.9800109863281 L 661.669677734375 295.45001220703125 L 653.5997314453125 295.45001220703125 L 653.5997314453125 320 L 647.4796752929688 320 L 647.4796752929688 295.45001220703125 L 642.0797119140625 295.45001220703125 L 642.0797119140625 289.9800109863281 L 647.4796752929688 289.9800109863281 L 647.4796752929688 276.6600036621094 ZM 665.9468994140625 278.3800048828125 C 665.9468994140625 277.23333740234375 666.3668823242188 276.2733459472656 667.2068481445312 275.5 C 668.046875 274.73333740234375 668.9468994140625 274.3500061035156 669.9068603515625 274.3500061035156 C 670.8668823242188 274.3500061035156 671.7535400390625 274.73333740234375 672.56689453125 275.5 C 673.3868408203125 276.2733459472656 673.796875 277.23333740234375 673.796875 278.3800048828125 C 673.796875 279.5333251953125 673.3868408203125 280.48333740234375 672.56689453125 281.2300109863281 C 671.7535400390625 281.9700012207031 670.8668823242188 282.3399963378906 669.9068603515625 282.3399963378906 C 668.9468994140625 282.3399963378906 668.046875 281.9700012207031 667.2068481445312 281.2300109863281 C 666.3668823242188 280.48333740234375 665.9468994140625 279.5333251953125 665.9468994140625 278.3800048828125 M 672.8568725585938 320 L 666.7368774414062 320 L 666.7368774414062 289.8999938964844 L 672.8568725585938 289.8999938964844 L 672.8568725585938 320 ZM 679.3954467773438 304.8800048828125 C 679.3954467773438 302.7200012207031 679.8154907226562 300.67999267578125 680.6554565429688 298.760009765625 C 681.4954833984375 296.8399963378906 682.6354370117188 295.17333984375 684.075439453125 293.760009765625 C 685.5154418945312 292.3399963378906 687.2088012695312 291.2099914550781 689.1554565429688 290.3699951171875 C 691.095458984375 289.5299987792969 693.1954956054688 289.1099853515625 695.4554443359375 289.1099853515625 C 697.7088012695312 289.1099853515625 699.8087768554688 289.5299987792969 701.7554931640625 290.3699951171875 C 703.6954956054688 291.2099914550781 705.37548828125 292.3399963378906 706.7954711914062 293.760009765625 C 708.2088012695312 295.17333984375 709.3121337890625 296.8399963378906 710.10546875 298.760009765625 C 710.8988037109375 300.67999267578125 711.2954711914062 302.7200012207031 711.2954711914062 304.8800048828125 C 711.2954711914062 307.0400085449219 710.8988037109375 309.0799865722656 710.10546875 311 C 709.3121337890625 312.9200134277344 708.2088012695312 314.6000061035156 706.7954711914062 316.0400085449219 C 705.37548828125 317.4800109863281 703.6954956054688 318.6199951171875 701.7554931640625 319.4599914550781 C 699.8087768554688 320.29998779296875 697.6854858398438 320.7200012207031 695.3854370117188 320.7200012207031 C 693.172119140625 320.7200012207031 691.095458984375 320.336669921875 689.1554565429688 319.57000732421875 C 687.2088012695312 318.8033447265625 685.5154418945312 317.72332763671875 684.075439453125 316.3299865722656 C 682.6354370117188 314.9366760253906 681.4954833984375 313.26666259765625 680.6554565429688 311.32000732421875 C 679.8154907226562 309.3800048828125 679.3954467773438 307.23333740234375 679.3954467773438 304.8800048828125 M 685.5154418945312 304.95001220703125 C 685.5154418945312 306.2966613769531 685.768798828125 307.5566711425781 686.2754516601562 308.7300109863281 C 686.7754516601562 309.9100036621094 687.4721069335938 310.9433288574219 688.365478515625 311.8299865722656 C 689.2521362304688 312.7166748046875 690.2821044921875 313.413330078125 691.4554443359375 313.9200134277344 C 692.6354370117188 314.4200134277344 693.8954467773438 314.6700134277344 695.2354736328125 314.6700134277344 C 696.5821533203125 314.6700134277344 697.85546875 314.4200134277344 699.0554809570312 313.9200134277344 C 700.2554931640625 313.413330078125 701.298828125 312.7166748046875 702.1854858398438 311.8299865722656 C 703.0721435546875 310.9433288574219 703.77880859375 309.9100036621094 704.3054809570312 308.7300109863281 C 704.8388061523438 307.5566711425781 705.10546875 306.2966613769531 705.10546875 304.95001220703125 C 705.10546875 303.6099853515625 704.8388061523438 302.3399963378906 704.3054809570312 301.1400146484375 C 703.77880859375 299.94000244140625 703.0721435546875 298.8933410644531 702.1854858398438 298 C 701.298828125 297.11334228515625 700.2554931640625 296.4200134277344 699.0554809570312 295.9200134277344 C 697.85546875 295.413330078125 696.5821533203125 295.1600036621094 695.2354736328125 295.1600036621094 C 693.8954467773438 295.1600036621094 692.6354370117188 295.413330078125 691.4554443359375 295.9200134277344 C 690.2821044921875 296.4200134277344 689.2521362304688 297.11334228515625 688.365478515625 298 C 687.4721069335938 298.8933410644531 686.7754516601562 299.94000244140625 686.2754516601562 301.1400146484375 C 685.768798828125 302.3399963378906 685.5154418945312 303.6099853515625 685.5154418945312 304.95001220703125 ZM 717.8055419921875 289.8999938964844 L 723.2055053710938 289.8999938964844 C 723.2988891601562 291.3933410644531 723.3822021484375 292.75 723.4555053710938 293.9700012207031 C 723.5288696289062 295.1966552734375 723.6121826171875 296.4100036621094 723.7055053710938 297.6099853515625 C 724.8121948242188 295.01666259765625 726.3855590820312 292.9533386230469 728.425537109375 291.4200134277344 C 730.4655151367188 289.8800048828125 732.9722290039062 289.1099853515625 735.945556640625 289.1099853515625 C 738.9722290039062 289.1099853515625 741.3988647460938 289.95001220703125 743.2255249023438 291.6300048828125 C 745.0455322265625 293.30999755859375 746.0055541992188 295.4700012207031 746.1055297851562 298.1099853515625 L 746.1055297851562 320 L 739.905517578125 320 L 739.905517578125 300.9200134277344 C 739.8121948242188 299.38665771484375 739.2855224609375 298.0799865722656 738.3255615234375 297 C 737.3655395507812 295.9200134277344 735.8521728515625 295.3299865722656 733.7855224609375 295.2300109863281 C 732.3455200195312 295.2300109863281 731.0255126953125 295.48333740234375 729.8255615234375 295.989990234375 C 728.6255493164062 296.489990234375 727.5955200195312 297.17333984375 726.7355346679688 298.0400085449219 C 725.868896484375 298.90667724609375 725.185546875 299.94000244140625 724.685546875 301.1400146484375 C 724.1788940429688 302.3399963378906 723.925537109375 303.6600036621094 723.925537109375 305.1000061035156 L 723.925537109375 320 L 717.8055419921875 320 L 717.8055419921875 289.8999938964844 ZM 802.9461669921875 270.67999267578125 L 800.1361694335938 277.0899963378906 C 798.1694946289062 276.3699951171875 796.2128295898438 275.7933349609375 794.2661743164062 275.3599853515625 C 792.326171875 274.9266662597656 790.4661865234375 274.7099914550781 788.6862182617188 274.7099914550781 C 785.6661987304688 274.7099914550781 783.2561645507812 275.3333435058594 781.4561767578125 276.58001708984375 C 779.6561889648438 277.8333435058594 778.7561645507812 279.41998291015625 778.7561645507812 281.3399963378906 C 778.7561645507812 282.9666748046875 779.40283203125 284.2733459472656 780.6961669921875 285.260009765625 C 781.989501953125 286.2466735839844 783.59619140625 287.1333312988281 785.5161743164062 287.91998291015625 C 787.4362182617188 288.71331787109375 789.5261840820312 289.50665283203125 791.7861938476562 290.29998779296875 C 794.03955078125 291.09332275390625 796.1261596679688 292.11334228515625 798.0462036132812 293.3599853515625 C 799.9661865234375 294.6066589355469 801.576171875 296.17999267578125 802.876220703125 298.0799865722656 C 804.1694946289062 299.97332763671875 804.816162109375 302.40667724609375 804.816162109375 305.3800048828125 C 804.816162109375 307.6866760253906 804.3961791992188 309.7633361816406 803.5562133789062 311.6099853515625 C 802.7161865234375 313.4566650390625 801.4695434570312 315.0533447265625 799.816162109375 316.3999938964844 C 798.1561889648438 317.7466735839844 796.0895385742188 318.7799987792969 793.6162109375 319.5 C 791.1495361328125 320.2200012207031 788.259521484375 320.5799865722656 784.9461669921875 320.5799865722656 C 782.8328857421875 320.5799865722656 780.9228515625 320.4333190917969 779.2161865234375 320.1400146484375 C 777.5161743164062 319.85333251953125 775.9828491210938 319.48333740234375 774.6162109375 319.0299987792969 C 773.2428588867188 318.57000732421875 772.0428466796875 318.07666015625 771.0161743164062 317.54998779296875 C 769.9828491210938 317.0233459472656 769.106201171875 316.5433349609375 768.3861694335938 316.1099853515625 L 771.836181640625 309.2699890136719 C 773.7561645507812 310.3766784667969 775.8928833007812 311.26666259765625 778.2462158203125 311.94000244140625 C 780.5995483398438 312.6066589355469 782.7362060546875 312.94000244140625 784.6561889648438 312.94000244140625 C 785.6162109375 312.94000244140625 786.8028564453125 312.82000732421875 788.2161865234375 312.5799865722656 C 789.6361694335938 312.3399963378906 790.9928588867188 311.9200134277344 792.2861938476562 311.32000732421875 C 793.586181640625 310.7200012207031 794.702880859375 309.9166564941406 795.6361694335938 308.9100036621094 C 796.5695190429688 307.9033203125 797.0361938476562 306.6333312988281 797.0361938476562 305.1000061035156 C 797.0361938476562 303.7066650390625 796.6661987304688 302.51666259765625 795.9262084960938 301.5299987792969 C 795.1795043945312 300.54998779296875 794.1961669921875 299.6866760253906 792.9761962890625 298.94000244140625 C 791.74951171875 298.1933288574219 790.356201171875 297.5199890136719 788.7962036132812 296.9200134277344 C 787.2362060546875 296.32000732421875 785.6395263671875 295.6966552734375 784.0061645507812 295.04998779296875 C 782.3728637695312 294.4033203125 780.7761840820312 293.7200012207031 779.2161865234375 293 C 777.6561889648438 292.2799987792969 776.2661743164062 291.4033203125 775.0462036132812 290.3699951171875 C 773.8195190429688 289.336669921875 772.836181640625 288.13665771484375 772.09619140625 286.7699890136719 C 771.3495483398438 285.4033203125 770.9761962890625 283.760009765625 770.9761962890625 281.8399963378906 C 770.9761962890625 280.066650390625 771.336181640625 278.3133239746094 772.0562133789062 276.58001708984375 C 772.7761840820312 274.85333251953125 773.856201171875 273.32000732421875 775.2962036132812 271.9800109863281 C 776.7362060546875 270.6333312988281 778.5228271484375 269.5533447265625 780.6561889648438 268.739990234375 C 782.7962036132812 267.91998291015625 785.2828369140625 267.510009765625 788.1162109375 267.510009765625 C 789.8428344726562 267.510009765625 791.5328369140625 267.6533203125 793.1862182617188 267.94000244140625 C 794.84619140625 268.23333740234375 796.34619140625 268.55999755859375 797.6862182617188 268.91998291015625 C 799.0328369140625 269.2799987792969 800.1728515625 269.6266784667969 801.106201171875 269.9599914550781 C 802.0462036132812 270.2933349609375 802.6595458984375 270.5333251953125 802.9461669921875 270.67999267578125 ZM 818.40185546875 334.4700012207031 L 812.2118530273438 334.4700012207031 C 812.8851928710938 333.07666015625 813.5218505859375 331.7466735839844 814.1218872070312 330.4800109863281 C 814.7218627929688 329.2066650390625 815.3218994140625 327.9100036621094 815.921875 326.5899963378906 C 816.5218505859375 325.2699890136719 817.1318969726562 323.8999938964844 817.7518920898438 322.4800109863281 C 818.3785400390625 321.0666809082031 819.0751953125 319.5433349609375 819.8418579101562 317.9100036621094 C 818.7352294921875 315.75 817.6085205078125 313.48333740234375 816.4618530273438 311.1099853515625 C 815.3085327148438 308.7300109863281 814.1552124023438 306.3399963378906 813.0018920898438 303.94000244140625 C 811.8485717773438 301.5400085449219 810.7085571289062 299.1400146484375 809.5819091796875 296.739990234375 C 808.4552001953125 294.3399963378906 807.3385620117188 292.05999755859375 806.2318725585938 289.8999938964844 L 812.931884765625 289.8999938964844 C 814.6585693359375 293.3133239746094 816.085205078125 296.1933288574219 817.2118530273438 298.5400085449219 C 818.3385620117188 300.8933410644531 819.2752075195312 302.92333984375 820.0218505859375 304.6300048828125 C 820.7685546875 306.3299865722656 821.3685302734375 307.7799987792969 821.8218994140625 308.9800109863281 C 822.2752075195312 310.17999267578125 822.671875 311.28668212890625 823.0119018554688 312.29998779296875 C 823.3919067382812 311.28668212890625 823.8118896484375 310.17999267578125 824.2718505859375 308.9800109863281 C 824.7252197265625 307.7799987792969 825.3251953125 306.3299865722656 826.0718994140625 304.6300048828125 C 826.8118896484375 302.92333984375 827.74853515625 300.8933410644531 828.8818969726562 298.5400085449219 C 830.008544921875 296.1933288574219 831.4352416992188 293.3133239746094 833.161865234375 289.8999938964844 L 839.8618774414062 289.8999938964844 L 818.40185546875 334.4700012207031 ZM 860.84423828125 292.57000732421875 L 857.604248046875 296.8900146484375 C 857.5509033203125 296.84332275390625 857.3809204101562 296.72332763671875 857.09423828125 296.5299987792969 C 856.8076171875 296.336669921875 856.4376220703125 296.1433410644531 855.9842529296875 295.95001220703125 C 855.5242919921875 295.75665283203125 854.9942626953125 295.57666015625 854.394287109375 295.4100036621094 C 853.7942504882812 295.24334716796875 853.1842651367188 295.1600036621094 852.5642700195312 295.1600036621094 C 851.7442626953125 295.1600036621094 850.9376220703125 295.35333251953125 850.144287109375 295.739990234375 C 849.3576049804688 296.1199951171875 848.9642333984375 296.8399963378906 848.9642333984375 297.8999938964844 C 848.9642333984375 298.8066711425781 849.28759765625 299.54998779296875 849.9342651367188 300.1300048828125 C 850.5809326171875 300.7033386230469 851.38427734375 301.2200012207031 852.34423828125 301.67999267578125 C 853.3042602539062 302.1333312988281 854.3475952148438 302.6000061035156 855.4742431640625 303.0799865722656 C 856.6009521484375 303.55999755859375 857.644287109375 304.14666748046875 858.604248046875 304.8399963378906 C 859.5642700195312 305.5400085449219 860.3709106445312 306.40667724609375 861.0242919921875 307.44000244140625 C 861.6708984375 308.4666748046875 861.9942626953125 309.7733459472656 861.9942626953125 311.3599853515625 C 861.9942626953125 314.0466613769531 861.0709228515625 316.26666259765625 859.2242431640625 318.0199890136719 C 857.3709106445312 319.7733459472656 854.8375854492188 320.6499938964844 851.624267578125 320.6499938964844 C 849.7509155273438 320.6499938964844 847.9142456054688 320.32666015625 846.1142578125 319.67999267578125 C 844.3142700195312 319.02667236328125 842.8642578125 318.07666015625 841.7642822265625 316.8299865722656 C 842.0975952148438 316.4966735839844 842.4675903320312 316.0666809082031 842.874267578125 315.5400085449219 C 843.2809448242188 315.00665283203125 843.69091796875 314.5 844.104248046875 314.0199890136719 C 844.5109252929688 313.5400085449219 844.84423828125 313.14666748046875 845.104248046875 312.8399963378906 C 845.3709106445312 312.52667236328125 845.527587890625 312.3699951171875 845.5742797851562 312.3699951171875 C 845.5742797851562 312.4166564941406 845.7542724609375 312.55999755859375 846.1142578125 312.79998779296875 C 846.4742431640625 313.0400085449219 846.9442749023438 313.2933349609375 847.5242919921875 313.55999755859375 C 848.0975952148438 313.82000732421875 848.7442626953125 314.05999755859375 849.4642333984375 314.2799987792969 C 850.1842651367188 314.49334716796875 850.9042358398438 314.6000061035156 851.624267578125 314.6000061035156 C 852.777587890625 314.6000061035156 853.7609252929688 314.3133239746094 854.5742797851562 313.739990234375 C 855.394287109375 313.1600036621094 855.8042602539062 312.3900146484375 855.8042602539062 311.42999267578125 C 855.8042602539062 310.57000732421875 855.4776000976562 309.88665771484375 854.8242797851562 309.3800048828125 C 854.1776123046875 308.8733215332031 853.374267578125 308.40667724609375 852.4142456054688 307.9800109863281 C 851.4542846679688 307.5466613769531 850.3975830078125 307.1000061035156 849.2442626953125 306.6400146484375 C 848.0975952148438 306.1866760253906 847.0442504882812 305.6000061035156 846.0842895507812 304.8800048828125 C 845.124267578125 304.1600036621094 844.3175659179688 303.260009765625 843.6642456054688 302.17999267578125 C 843.017578125 301.1000061035156 842.6942749023438 299.6966552734375 842.6942749023438 297.9700012207031 C 842.6942749023438 296.336669921875 842.9942626953125 294.9666748046875 843.59423828125 293.8599853515625 C 844.1942749023438 292.760009765625 844.9642333984375 291.8599853515625 845.9042358398438 291.1600036621094 C 846.8375854492188 290.4666748046875 847.8809204101562 289.96331787109375 849.0342407226562 289.6499938964844 C 850.1876220703125 289.336669921875 851.2909545898438 289.17999267578125 852.34423828125 289.17999267578125 C 853.7376098632812 289.17999267578125 855.2242431640625 289.4700012207031 856.8042602539062 290.04998779296875 C 858.3909301757812 290.6233215332031 859.7376098632812 291.46331787109375 860.84423828125 292.57000732421875 ZM 871.120361328125 276.6600036621094 L 877.2404174804688 276.6600036621094 L 877.2404174804688 289.9800109863281 L 885.3103637695312 289.9800109863281 L 885.3103637695312 295.45001220703125 L 877.2404174804688 295.45001220703125 L 877.2404174804688 320 L 871.120361328125 320 L 871.120361328125 295.45001220703125 L 865.7203979492188 295.45001220703125 L 865.7203979492188 289.9800109863281 L 871.120361328125 289.9800109863281 L 871.120361328125 276.6600036621094 ZM 915.2472534179688 316.4700012207031 C 913.8072509765625 317.7699890136719 912.0538940429688 318.8033447265625 909.9872436523438 319.57000732421875 C 907.92724609375 320.336669921875 905.8172607421875 320.7200012207031 903.6572265625 320.7200012207031 C 901.4439086914062 320.7200012207031 899.3672485351562 320.29998779296875 897.42724609375 319.4599914550781 C 895.4805908203125 318.6199951171875 893.7872314453125 317.49334716796875 892.3472290039062 316.0799865722656 C 890.9072265625 314.6600036621094 889.7672729492188 312.989990234375 888.92724609375 311.07000732421875 C 888.0872802734375 309.1499938964844 887.667236328125 307.1099853515625 887.667236328125 304.95001220703125 C 887.667236328125 302.7900085449219 888.0872802734375 300.75 888.92724609375 298.8299865722656 C 889.7672729492188 296.9100036621094 890.9072265625 295.2300109863281 892.3472290039062 293.7900085449219 C 893.7872314453125 292.3500061035156 895.457275390625 291.2099914550781 897.3572387695312 290.3699951171875 C 899.2506103515625 289.5299987792969 901.2772827148438 289.1099853515625 903.437255859375 289.1099853515625 C 906.8439331054688 289.1099853515625 909.8072509765625 290.1300048828125 912.3272705078125 292.1700134277344 C 914.8472290039062 294.2099914550781 916.6605834960938 296.88665771484375 917.7672729492188 300.20001220703125 C 916.2805786132812 300.7266540527344 914.5772705078125 301.3733215332031 912.6572265625 302.1400146484375 C 910.7372436523438 302.913330078125 908.743896484375 303.7200012207031 906.67724609375 304.55999755859375 C 904.610595703125 305.3999938964844 902.5472412109375 306.2266540527344 900.4872436523438 307.0400085449219 C 898.4205932617188 307.85333251953125 896.5006103515625 308.5966796875 894.7272338867188 309.2699890136719 C 895.5405883789062 310.9033203125 896.7272338867188 312.21331787109375 898.2872314453125 313.20001220703125 C 899.8472290039062 314.17999267578125 901.5872802734375 314.6700134277344 903.5072631835938 314.6700134277344 C 904.8072509765625 314.6700134277344 906.1172485351562 314.42999267578125 907.437255859375 313.95001220703125 C 908.7572631835938 313.4700012207031 909.8239135742188 312.8233337402344 910.6372680664062 312.010009765625 L 915.2472534179688 316.4700012207031 M 910.0572509765625 298.760009765625 C 909.4839477539062 297.55999755859375 908.5739135742188 296.6600036621094 907.3272705078125 296.05999755859375 C 906.08056640625 295.4599914550781 904.8072509765625 295.1600036621094 903.5072631835938 295.1600036621094 C 902.1138916015625 295.1600036621094 900.83056640625 295.42333984375 899.6572265625 295.95001220703125 C 898.4839477539062 296.4766540527344 897.4639282226562 297.1866760253906 896.5972290039062 298.0799865722656 C 895.7305908203125 298.9666748046875 895.0472412109375 299.9866638183594 894.5472412109375 301.1400146484375 C 894.0405883789062 302.28668212890625 893.7872314453125 303.4599914550781 893.7872314453125 304.6600036621094 C 893.7872314453125 304.8999938964844 893.8005981445312 305.07000732421875 893.8272705078125 305.1700134277344 C 893.8472290039062 305.2633361816406 893.8572387695312 305.3333435058594 893.8572387695312 305.3800048828125 C 895.110595703125 304.8999938964844 896.46728515625 304.3599853515625 897.92724609375 303.760009765625 C 899.3939208984375 303.1600036621094 900.8472290039062 302.55999755859375 902.2872314453125 301.9599914550781 C 903.7272338867188 301.3599853515625 905.1172485351562 300.78668212890625 906.457275390625 300.239990234375 C 907.8038940429688 299.6866760253906 909.00390625 299.1933288574219 910.0572509765625 298.760009765625 ZM 923.044921875 289.8999938964844 L 928.4448852539062 289.8999938964844 C 928.5382690429688 291.3933410644531 928.62158203125 292.75 928.6948852539062 293.9700012207031 C 928.7682495117188 295.1966552734375 928.8515625 296.4100036621094 928.9448852539062 297.6099853515625 C 930.0515747070312 295.01666259765625 931.5049438476562 292.96331787109375 933.304931640625 291.45001220703125 C 935.1049194335938 289.9366760253906 937.5182495117188 289.15667724609375 940.544921875 289.1099853515625 C 943.4715576171875 289.1099853515625 945.8215942382812 289.85333251953125 947.5949096679688 291.3399963378906 C 949.3749389648438 292.8333435058594 950.4082641601562 294.7799987792969 950.6948852539062 297.17999267578125 C 951.8948974609375 294.7266540527344 953.37158203125 292.7799987792969 955.1249389648438 291.3399963378906 C 956.87158203125 289.8999938964844 959.2349243164062 289.15667724609375 962.2149047851562 289.1099853515625 C 965.3348999023438 289.1099853515625 967.794921875 289.95001220703125 969.5949096679688 291.6300048828125 C 971.3948974609375 293.30999755859375 972.341552734375 295.4700012207031 972.4349365234375 298.1099853515625 L 972.4349365234375 320 L 966.2449340820312 320 L 966.2449340820312 300.9200134277344 C 966.151611328125 299.38665771484375 965.6348876953125 298.0799865722656 964.6949462890625 297 C 963.7615966796875 295.9200134277344 962.2382202148438 295.3299865722656 960.1249389648438 295.2300109863281 C 957.2449340820312 295.2300109863281 954.9882202148438 296.1533203125 953.3549194335938 298 C 951.7215576171875 299.85333251953125 950.8582763671875 302.2200012207031 950.764892578125 305.1000061035156 L 950.764892578125 320 L 944.6448974609375 320 L 944.6448974609375 300.9200134277344 C 944.5515747070312 299.38665771484375 944.0115966796875 298.0799865722656 943.02490234375 297 C 942.0382690429688 295.9200134277344 940.5382690429688 295.3299865722656 938.52490234375 295.2300109863281 C 937.0848999023438 295.2300109863281 935.7882690429688 295.48333740234375 934.6348876953125 295.989990234375 C 933.4815673828125 296.489990234375 932.4982299804688 297.17333984375 931.6849365234375 298.0400085449219 C 930.87158203125 298.90667724609375 930.2482299804688 299.94000244140625 929.81494140625 301.1400146484375 C 929.381591796875 302.3399963378906 929.1649169921875 303.6600036621094 929.1649169921875 305.1000061035156 L 929.1649169921875 320 L 923.044921875 320 L 923.044921875 289.8999938964844 Z" transform="matrix(0.7471765875816345, 0, 0, 0.7471765875816345, -137.141357421875, -166.63038635253906)" style="fill: rgb(255, 136, 0); white-space: pre; color: rgb(255, 123, 0); fill-opacity: 1;"/></svg>